<?xml version="1.0" encoding="UTF-8" standalone="no" ?>
<!DOCTYPE svg PUBLIC "-//W3C//DTD SVG 1.1//EN" "http://www.w3.org/Graphics/SVG/1.1/DTD/svg11.dtd">
<svg xmlns="http://www.w3.org/2000/svg" xmlns:xlink="http://www.w3.org/1999/xlink" version="1.1" width="592.940234375" height="213.48784" xml:space="preserve">
<desc>Created with Fabric.js 1.6.0-rc.1</desc>
<defs></defs>
<g style="stroke: none; stroke-width: 1; stroke-dasharray: none; stroke-linecap: butt; stroke-linejoin: miter; stroke-miterlimit: 10; fill: none; fill-rule: nonzero; opacity: 1;" transform="translate(10 32.920000000000016) scale(0.26 0.26)" >
  <circle cx="256" cy="256" r="247.64" style="stroke: none; stroke-width: 1; stroke-dasharray: none; stroke-linecap: butt; stroke-linejoin: miter; stroke-miterlimit: 10; fill: #008eb9; fill-rule: nonzero; opacity: 1;" transform="  matrix(1 0 0 1 0 0) "/>
  <path d="M 353.244 432.842 c -122.114 0 -221.107 -98.993 -221.107 -221.107 c 0 -91.098 55.107 -169.304 133.792 -203.166 c -3.312 -0.132 -6.628 -0.252 -9.972 -0.252 c -136.768 0 -247.64 110.872 -247.64 247.64 c 0 136.767 110.872 247.64 247.64 247.64 c 78.002 0 147.54 -36.098 192.933 -92.46 C 419.945 425.046 387.505 432.842 353.244 432.842 z" style="stroke: none; stroke-width: 1; stroke-dasharray: none; stroke-linecap: butt; stroke-linejoin: miter; stroke-miterlimit: 10; fill: #008eb7; fill-rule: nonzero; opacity: 1;" transform=" matrix(1 0 0 1 0 0) " stroke-linecap="round" />
  <path d="M 499.879 212.997 C 480.858 105.124 394.668 26.026 291.913 10.979 l 16.833 20.557 c 2.004 2.448 2.483 5.806 1.239 8.716 l -11.468 26.837 c -1.185 2.775 -4.952 3.178 -6.7 0.719 l -10.742 -15.126 c -1.684 -2.371 -4.458 -3.721 -7.362 -3.585 l -18.111 0.849 l -33.02 38.795 c -3.133 3.681 -0.766 9.363 4.053 9.73 l 21.031 1.605 l 15.409 -21.31 l 14.767 18.68 l -3.689 26.14 c -0.239 1.695 -1.565 3.03 -3.258 3.281 l -33.409 4.949 c -1.421 0.21 -2.768 0.764 -3.928 1.612 l -32.927 24.108 c -3.33 2.438 -5.681 5.983 -6.632 9.998 l -3.17 13.386 c -1.002 4.232 -5.026 7.035 -9.343 6.508 l -14.903 -1.817 c -3.924 -0.479 -7.664 1.798 -9.039 5.503 l -8.319 22.403 c -1.731 4.661 0.87 9.809 5.648 11.181 l 18.774 5.391 c 4.769 1.37 9.823 -0.966 11.869 -5.486 l 12.161 -26.847 c 1.993 -4.401 5.758 -7.752 10.36 -9.221 l 38.197 -12.202 l 5.811 -1.856 l 33.095 19.631 c 1.481 0.879 3.187 1.308 4.907 1.228 c 6.494 -0.298 12.972 -0.645 14.883 -0.918 c 3.117 -0.446 5.615 -2.804 6.24 -5.89 l 4.233 -20.916 c 1.127 -3.879 4.817 -6.44 8.845 -6.134 l 4.334 0.328 c 6.56 0.73 8.346 -3.021 10.153 -8.115 l 15.978 4.408 c 2.808 0.945 4.926 3.28 5.595 6.167 l 1.288 5.565 c 1.02 4.406 -1.573 8.842 -5.911 10.118 l -38.536 11.327 c -4.381 1.288 -5.933 6.696 -2.902 10.111 l 3.571 4.025 c 1.6 1.803 3.956 2.745 6.357 2.543 l 22.392 -1.886 c 4.327 -0.365 8.24 2.577 9.091 6.836 l 1.138 5.691 c 2.005 10.034 -5.199 19.567 -15.4 20.375 l -43.132 3.416 c -4.898 0.388 -8.258 5.2 -6.802 9.892 c 1.868 6.021 -3.856 11.614 -9.823 9.625 l -32.222 -10.74 c -4.287 -1.429 -7.425 -5.124 -8.138 -9.587 l -0.011 -0.061 c -0.959 -5.994 -6.203 -10.356 -12.273 -10.206 l -30.479 0.753 c -10.938 0.27 -21.717 2.675 -31.731 7.082 l -10.62 4.674 c -5.99 2.636 -9.948 8.463 -10.19 15.002 l -0.315 8.52 l -30.643 35.021 c -2.724 3.113 -4.225 7.11 -4.225 11.247 v 37.502 c 0 6.949 2.824 13.6 7.823 18.427 l 26.914 25.986 c 4.229 4.083 9.734 6.587 15.59 7.093 l 80.706 6.967 c 4.998 0.431 8.638 4.93 8.015 9.909 l -0.472 3.772 c -0.763 6.106 1.818 12.152 6.755 15.824 l 19.763 14.695 l -3.055 9.839 c -2.031 6.546 0.048 13.672 5.279 18.1 l 20.996 18.132 c 20.903 -3.695 40.726 -9.916 59.216 -18.287 l 32.703 -39.256 c 5.284 -6.314 9.629 -13.359 12.897 -20.917 l 45.824 -105.976 c 0 0 -22.756 2.323 -23.188 2.311 l 34.566 -67.6 c 1.915 -3.801 0.738 -8.432 -2.759 -10.857 l -6.046 -4.192 c -2.291 -1.589 -2.922 -4.7 -1.432 -7.057 l 2.984 -4.721 c 5.815 -9.195 18.63 -10.683 26.395 -3.062 l 22.976 22.546 C 502.702 232.917 501.639 222.979 499.879 212.997 z" style="stroke: none; stroke-width: 1; stroke-dasharray: none; stroke-linecap: butt; stroke-linejoin: miter; stroke-miterlimit: 10; fill: #000003; fill-rule: nonzero; opacity: 1;" transform=" matrix(1 0 0 1 0 0) " stroke-linecap="round" />
  <path d="M 119.125 79.622 l 46.011 -22.862 c 8.057 -4.004 15.828 -8.561 23.255 -13.641 l 11.526 -7.882 c 3.741 -2.558 4.943 -7.532 2.783 -11.516 l -4.586 -8.457 c -27.557 6.6 -53.035 17.624 -75.78 32.22 l -9.599 25.599 C 110.562 77.207 114.948 81.697 119.125 79.622 z" style="stroke: none; stroke-width: 1; stroke-dasharray: none; stroke-linecap: butt; stroke-linejoin: miter; stroke-miterlimit: 10; fill: #000003; fill-rule: nonzero; opacity: 1;" transform=" matrix(1 0 0 1 0 0) " stroke-linecap="round" />
  <path d="M 353.244 432.842 c -100.879 0 -185.917 -67.584 -212.464 -159.923 l -25.766 29.446 c -2.724 3.113 -4.225 7.11 -4.225 11.247 v 37.502 c 0 6.949 2.824 13.601 7.824 18.429 l 26.914 25.986 c 4.229 4.083 9.733 6.587 15.589 7.093 l 80.706 6.967 c 4.998 0.431 8.638 4.93 8.015 9.909 l -0.472 3.772 c -0.763 6.106 1.818 12.151 6.756 15.824 l 19.761 14.695 l -3.053 9.839 c -2.031 6.546 0.046 13.672 5.279 18.1 l 20.98 18.117 c 1.236 -0.218 2.442 -0.515 3.672 -0.751 c 3.61 -0.693 7.209 -1.408 10.752 -2.251 c 2.092 -0.499 4.146 -1.093 6.216 -1.645 c 2.628 -0.698 5.26 -1.387 7.848 -2.166 c 2.568 -0.776 5.1 -1.634 7.632 -2.49 c 1.931 -0.65 3.866 -1.295 5.772 -1.989 c 2.962 -1.085 5.891 -2.235 8.798 -3.429 c 1.32 -0.54 2.638 -1.08 3.945 -1.641 c 1.632 -0.703 3.228 -1.47 4.842 -2.207 l 32.457 -38.961 c 3.763 -4.495 6.859 -9.467 9.618 -14.624 C 385.368 431.03 369.521 432.842 353.244 432.842 z" style="stroke: none; stroke-width: 1; stroke-dasharray: none; stroke-linecap: butt; stroke-linejoin: miter; stroke-miterlimit: 10; fill: #000003; fill-rule: nonzero; opacity: 1;" transform=" matrix(1 0 0 1 0 0) " stroke-linecap="round" />
  <path d="M 508.045 211.557 c -11.871 -67.323 -49.248 -125.995 -105.248 -165.206 C 346.798 7.142 278.883 -7.916 211.558 3.955 C 144.234 15.827 85.563 53.204 46.352 109.202 S -7.915 233.119 3.955 300.442 c 11.871 67.323 49.248 125.995 105.248 165.206 C 152.717 496.117 203.421 512 255.456 512 c 14.93 0 29.976 -1.308 44.985 -3.954 c 67.324 -11.871 125.995 -49.248 165.206 -105.248 S 519.916 278.881 508.045 211.557 z M 491.714 214.437 c 0.379 2.148 0.722 4.297 1.043 6.446 l -6.682 -6.557 c -5.499 -5.395 -13.045 -7.98 -20.692 -7.093 c -7.651 0.888 -14.402 5.131 -18.519 11.641 l -2.281 3.606 c -4.706 -0.342 -9.491 1.289 -13.043 4.79 l -1.033 1.018 l -14.502 -17.174 c -2.955 -3.499 -8.185 -3.939 -11.684 -0.986 c -3.499 2.955 -3.94 8.185 -0.986 11.684 l 20.281 24.017 c 1.49 1.764 3.649 2.828 5.957 2.933 c 2.295 0.101 4.554 -0.756 6.199 -2.378 l 7.41 -7.304 c 0.085 -0.083 0.217 -0.094 0.315 -0.027 l 10.142 7.035 c 0.101 0.07 0.136 0.206 0.08 0.315 l -31.047 61.634 l -2.64 0.196 c -2.848 0.21 -5.632 -0.982 -7.442 -3.189 l -39.92 -48.652 c -2.904 -3.54 -8.129 -4.055 -11.669 -1.151 s -4.055 8.129 -1.151 11.669 l 39.919 48.652 c 5.23 6.376 13.263 9.815 21.488 9.208 l 15.926 -1.18 l -40.872 94.517 c -2.952 6.827 -6.87 13.18 -11.645 18.886 l -31.773 37.959 c -16.323 7.188 -33.563 12.579 -51.483 16.034 l -17.944 -15.59 c -2.698 -2.282 -3.764 -5.938 -2.716 -9.313 l 3.053 -9.839 c 1.043 -3.361 -0.148 -7.012 -2.972 -9.112 l -19.761 -14.695 c -2.535 -1.886 -3.868 -5.005 -3.476 -8.141 l 1.612 -12.891 c 0.279 -2.235 -0.364 -4.491 -1.781 -6.242 c -1.417 -1.751 -3.488 -2.852 -5.733 -3.046 l -89.86 -7.758 c -3.949 -0.342 -7.693 -2.045 -10.545 -4.798 l -26.914 -25.982 c -3.363 -3.247 -5.292 -7.79 -5.292 -12.465 v -37.501 c 0 -2.129 0.773 -4.184 2.173 -5.786 l 30.644 -35.021 c 1.253 -1.432 1.976 -3.251 2.045 -5.153 l 0.316 -8.523 c 0.124 -3.341 2.181 -6.371 5.242 -7.717 l 24.29 -10.687 l 45.407 -1.121 c 1.932 -0.043 3.579 1.341 3.89 3.288 c 1.207 7.543 6.459 13.729 13.704 16.144 l 32.222 10.74 c 5.706 1.902 11.927 0.479 16.236 -3.715 c 4.144 -4.031 5.776 -9.897 4.348 -15.456 l 42.451 -3.362 c 7.222 -0.573 13.869 -4.215 18.237 -9.995 s 6.057 -13.168 4.637 -20.272 l -1.139 -5.69 c -1.679 -8.4 -9.385 -14.192 -17.916 -13.472 l -22.066 1.858 l -1.199 -1.351 l 35.418 -10.411 c 8.542 -2.511 13.66 -11.271 11.651 -19.944 l -1.288 -5.565 c -1.329 -5.734 -5.451 -10.277 -11.029 -12.154 l -7.958 -2.679 l 0.418 -1.102 c 1.624 -4.282 -0.531 -9.069 -4.814 -10.693 c -4.283 -1.625 -9.069 0.531 -10.693 4.814 l -4.853 12.8 c -0.039 0.102 -0.151 0.167 -0.25 0.159 l -4.334 -0.328 c -7.889 -0.6 -15.227 4.487 -17.434 12.09 l -6.023 20.744 l -13.924 0.663 l -31.078 -19.278 c -2.062 -1.279 -4.582 -1.591 -6.894 -0.852 l -44.008 14.058 c -2.516 0.804 -4.868 1.99 -6.98 3.495 c 0.137 -0.425 0.258 -0.858 0.363 -1.3 l 3.94 -16.634 l 35.73 -26.159 l 36.399 -5.393 c 3.635 -0.538 6.482 -3.405 6.995 -7.043 l 4.092 -28.998 c 0.317 -2.244 -0.3 -4.522 -1.705 -6.299 l -14.766 -18.68 c -1.625 -2.055 -4.123 -3.228 -6.744 -3.146 c -2.619 0.075 -5.048 1.383 -6.551 3.529 l -11.861 16.924 l -11.9 -0.97 l 27.068 -31.9 l 14.51 -0.681 c 0.081 0.001 0.165 0.035 0.213 0.104 l 14.733 20.746 c 1.737 2.447 4.669 3.76 7.645 3.444 c 2.984 -0.321 5.562 -2.228 6.74 -4.987 l 14.163 -33.151 c 2.463 -5.765 1.537 -12.369 -2.419 -17.232 l -2.392 -2.942 c 28.5 6.966 55.747 19.241 80.5 36.573 C 445.656 96.606 480.612 151.476 491.714 214.437 z M 157.16 216.731 c -0.042 -0.012 -0.104 -0.03 -0.154 -0.126 c -0.049 -0.097 -0.025 -0.158 -0.011 -0.199 l 8.32 -22.403 c 0.036 -0.097 0.129 -0.161 0.231 -0.161 c 0.01 0 0.021 0.001 0.031 0.002 l 14.902 1.818 c 3.521 0.43 6.931 -0.258 9.866 -1.801 c -0.075 0.158 -0.149 0.317 -0.222 0.478 l -12.771 28.191 L 157.16 216.731 z M 234.408 188.818 l 21.214 26.024 c 0.053 0.065 0.07 0.156 0.043 0.235 l -2.579 7.625 c -1.467 4.338 0.86 9.044 5.198 10.511 c 0.88 0.299 1.777 0.439 2.658 0.439 c 3.457 0 6.684 -2.18 7.854 -5.637 l 2.579 -7.625 c 1.867 -5.519 0.784 -11.51 -2.898 -16.027 l -16.382 -20.096 l 28.848 17.894 c 0.049 0.03 0.103 0.05 0.151 0.08 l 3.007 16.101 c 0.744 3.988 4.228 6.771 8.141 6.771 c 0.505 0 1.017 -0.046 1.531 -0.143 c 4.502 -0.84 7.469 -5.172 6.629 -9.672 l -2.333 -12.489 l 6.092 -0.291 l 9.997 11.265 c 1.736 1.956 4.296 2.975 6.897 2.758 l 26.207 -2.207 c 0.129 -0.015 0.239 0.074 0.263 0.198 l 1.139 5.692 c 0.5 2.496 -0.071 4.99 -1.605 7.021 c -1.536 2.032 -3.779 3.261 -6.317 3.463 l -43.134 3.416 c -4.859 0.386 -9.22 2.915 -11.967 6.941 c -2.546 3.731 -3.39 8.285 -2.374 12.645 l -31.229 -10.41 c -1.36 -0.453 -2.347 -1.615 -2.583 -3.091 c -1.581 -9.882 -10.2 -17.192 -20.162 -17.192 c -0.167 0 -0.335 0.002 -0.503 0.007 l -33.834 0.835 l 10.274 -22.68 c 1.024 -2.261 2.967 -3.99 5.331 -4.745 L 234.408 188.818 z M 319.911 181.825 l 3.455 -11.898 c 0.031 -0.106 0.129 -0.178 0.238 -0.178 c 0.006 0 0.012 0 0.019 0.001 l 4.334 0.328 c 5.986 0.455 11.715 -2.381 15.071 -7.161 l 9.041 3.042 c 0.083 0.028 0.144 0.095 0.163 0.179 l 1.288 5.564 c 0.03 0.127 -0.046 0.256 -0.172 0.294 L 319.911 181.825 z M 195.42 28.266 l -22.389 15.313 l -47.937 23.819 l 9.309 -17.687 c 18.334 -10.796 38.156 -19.131 59.067 -24.752 L 195.42 28.266 z M 118.715 452.064 c -52.37 -36.671 -87.326 -91.541 -98.428 -154.502 s 2.979 -126.477 39.649 -178.847 c 12.888 -18.407 28.034 -34.653 44.981 -48.478 c -2.041 4.831 -1.018 10.426 2.701 14.234 c 2.531 2.59 5.917 3.953 9.358 3.952 c 1.979 0 3.976 -0.45 5.838 -1.376 l 58.112 -28.874 c 0.344 -0.17 0.674 -0.365 0.991 -0.582 l 29.265 -20.015 c 3.602 -2.463 4.678 -7.298 2.462 -11.055 l -3.229 -5.476 c 1.339 -0.259 2.677 -0.523 4.022 -0.76 c 14.043 -2.476 28.104 -3.699 42.071 -3.699 c 10.425 0 20.794 0.688 31.052 2.039 l 14.751 18.141 c 0.057 0.071 0.072 0.168 0.035 0.253 l -8.348 19.54 l -6.163 -8.68 c -3.334 -4.694 -8.765 -7.341 -14.51 -7.067 l -18.111 0.849 c -2.297 0.108 -4.446 1.164 -5.935 2.919 L 214.81 85.206 c -3.061 3.608 -3.837 8.565 -2.025 12.936 c 1.812 4.371 5.867 7.325 10.583 7.71 l 15.951 1.3 l -0.143 1.313 c -0.033 0.306 -0.05 0.611 -0.05 0.912 c 0.001 4.174 3.147 7.765 7.393 8.23 c 4.554 0.494 8.645 -2.79 9.142 -7.343 l 0.837 -7.669 l 6.976 -9.954 l 5.66 7.161 l -2.731 19.348 l -32.297 4.785 c -1.332 0.198 -2.597 0.715 -3.684 1.511 l -39.85 29.176 c -1.591 1.165 -2.715 2.86 -3.171 4.779 l -4.643 19.608 c -0.029 0.123 -0.139 0.206 -0.272 0.189 l -14.902 -1.817 c -7.763 -0.946 -15.092 3.513 -17.816 10.848 l -8.32 22.403 c -1.626 4.378 -1.351 9.281 0.755 13.449 c 2.106 4.169 5.888 7.3 10.378 8.589 l 5.046 1.449 l -4.806 2.115 c -8.838 3.888 -14.779 12.635 -15.135 22.282 l -0.208 5.583 l -28.706 32.808 c -4.047 4.627 -6.277 10.559 -6.277 16.706 v 37.501 c 0 9.149 3.775 18.04 10.357 24.395 l 26.912 25.985 c 5.58 5.387 12.908 8.723 20.637 9.389 l 81.278 7.017 l -0.543 4.343 c -1.132 9.053 2.714 18.061 10.036 23.506 l 15.05 11.191 l -1.313 4.231 c -3.024 9.743 0.054 20.297 7.761 26.817 l 7.115 6.182 c -8.115 0.824 -16.22 1.245 -24.295 1.245 C 206.832 495.411 159.405 480.556 118.715 452.064 z M 452.065 393.285 c -16.138 23.048 -35.804 42.718 -58.129 58.471 l 3.447 -4.118 c 5.802 -6.933 10.562 -14.653 14.149 -22.948 l 46.308 -107.088 c 1.152 -2.663 0.828 -5.733 -0.853 -8.097 c -1.682 -2.364 -4.472 -3.677 -7.369 -3.463 l -7.658 0.567 l 26.568 -52.744 c 3.753 -7.448 1.414 -16.649 -5.438 -21.402 l -3.613 -2.506 l 1.403 -2.218 c 1.426 -2.255 3.764 -3.725 6.414 -4.032 c 2.656 -0.307 5.263 0.588 7.167 2.458 l 20.727 20.339 C 497.364 298.648 482.507 349.808 452.065 393.285 z" style="stroke: none; stroke-width: 1; stroke-dasharray: none; stroke-linecap: butt; stroke-linejoin: miter; stroke-miterlimit: 10; fill: #008eb7; fill-rule: nonzero; opacity: 1;" transform=" matrix(1 0 0 1 0 0) " stroke-linecap="round" />
  <path d="M 181.241 152.171 c 2.051 0 4.106 -0.756 5.71 -2.281 l 10.674 -10.14 c 1.68 -1.596 2.616 -3.823 2.579 -6.14 l -0.356 -22.95 c -0.071 -4.579 -3.84 -8.236 -8.419 -8.162 c -4.579 0.071 -8.233 3.841 -8.162 8.419 l 0.3 19.314 l -8.038 7.636 c -3.32 3.154 -3.455 8.402 -0.301 11.722 C 176.858 151.306 179.047 152.171 181.241 152.171 z" style="stroke: none; stroke-width: 1; stroke-dasharray: none; stroke-linecap: butt; stroke-linejoin: miter; stroke-miterlimit: 10; fill: #008eb7; fill-rule: nonzero; opacity: 1;" transform=" matrix(1 0 0 1 0 0) " stroke-linecap="round" />
</g>
  <g transform="translate(261.08 74.65) scale(2.42 2.42)">
   <text font-family="Broad" font-size="40" font-weight="normal" style="stroke: none; stroke-width: 1; stroke-dasharray: none; stroke-linecap: butt; stroke-linejoin: miter; stroke-miterlimit: 10; fill: #008eb9; fill-rule: nonzero; opacity: 1;" ><tspan x="-36.52" y="8.98" style="stroke: none; stroke-width: 0; stroke-dasharray: none; stroke-linecap: butt; stroke-linejoin: miter; stroke-miterlimit: 4; fill: #008eb9; fill-rule: ; opacity: 1;">I</tspan><tspan x="-21.8" y="8.98" style="stroke: none; stroke-width: 0; stroke-dasharray: none; stroke-linecap: butt; stroke-linejoin: miter; stroke-miterlimit: 4; fill: #008eb9; fill-rule: ; opacity: 1;">O</tspan><tspan x="11.8" y="8.98" style="stroke: none; stroke-width: 0; stroke-dasharray: none; stroke-linecap: butt; stroke-linejoin: miter; stroke-miterlimit: 4; fill: #008eb9; fill-rule: ; opacity: 1;">T</tspan></text>
 </g>
  <g transform="translate(375.66 155.4) scale(1.87 1.87)">
   <text font-family="Lobster 13" font-size="40" font-weight="normal" style="stroke: none; stroke-width: 1; stroke-dasharray: none; stroke-linecap: butt; stroke-linejoin: miter; stroke-miterlimit: 10; fill: #008eb9; fill-rule: nonzero; opacity: 1;" ><tspan x="-111.35" y="8.98" style="stroke: none; stroke-width: 0; stroke-dasharray: none; stroke-linecap: butt; stroke-linejoin: miter; stroke-miterlimit: 4; fill: #008eb9; fill-rule: ; opacity: 1;">D</tspan><tspan x="-84.84" y="8.98" style="stroke: none; stroke-width: 0; stroke-dasharray: none; stroke-linecap: butt; stroke-linejoin: miter; stroke-miterlimit: 4; fill: #008eb9; fill-rule: ; opacity: 1;">i</tspan><tspan x="-74.1" y="8.98" style="stroke: none; stroke-width: 0; stroke-dasharray: none; stroke-linecap: butt; stroke-linejoin: miter; stroke-miterlimit: 4; fill: #008eb9; fill-rule: ; opacity: 1;">g</tspan><tspan x="-54.32" y="8.98" style="stroke: none; stroke-width: 0; stroke-dasharray: none; stroke-linecap: butt; stroke-linejoin: miter; stroke-miterlimit: 4; fill: #008eb9; fill-rule: ; opacity: 1;">i</tspan><tspan x="-43.57" y="8.98" style="stroke: none; stroke-width: 0; stroke-dasharray: none; stroke-linecap: butt; stroke-linejoin: miter; stroke-miterlimit: 4; fill: #008eb9; fill-rule: ; opacity: 1;">t</tspan><tspan x="-31.89" y="8.98" style="stroke: none; stroke-width: 0; stroke-dasharray: none; stroke-linecap: butt; stroke-linejoin: miter; stroke-miterlimit: 4; fill: #008eb9; fill-rule: ; opacity: 1;">a</tspan><tspan x="-11.78" y="8.98" style="stroke: none; stroke-width: 0; stroke-dasharray: none; stroke-linecap: butt; stroke-linejoin: miter; stroke-miterlimit: 4; fill: #008eb9; fill-rule: ; opacity: 1;">l</tspan><tspan x="-0.35" y="8.98" style="stroke: none; stroke-width: 0; stroke-dasharray: none; stroke-linecap: butt; stroke-linejoin: miter; stroke-miterlimit: 4; fill: #008eb9; fill-rule: ; opacity: 1;"> </tspan><tspan x="8.32" y="8.98" style="stroke: none; stroke-width: 0; stroke-dasharray: none; stroke-linecap: butt; stroke-linejoin: miter; stroke-miterlimit: 4; fill: #008eb9; fill-rule: ; opacity: 1;">W</tspan><tspan x="47.11" y="8.98" style="stroke: none; stroke-width: 0; stroke-dasharray: none; stroke-linecap: butt; stroke-linejoin: miter; stroke-miterlimit: 4; fill: #008eb9; fill-rule: ; opacity: 1;">o</tspan><tspan x="63.83" y="8.98" style="stroke: none; stroke-width: 0; stroke-dasharray: none; stroke-linecap: butt; stroke-linejoin: miter; stroke-miterlimit: 4; fill: #008eb9; fill-rule: ; opacity: 1;">r</tspan><tspan x="79.53" y="8.98" style="stroke: none; stroke-width: 0; stroke-dasharray: none; stroke-linecap: butt; stroke-linejoin: miter; stroke-miterlimit: 4; fill: #008eb9; fill-rule: ; opacity: 1;">l</tspan><tspan x="90.96" y="8.98" style="stroke: none; stroke-width: 0; stroke-dasharray: none; stroke-linecap: butt; stroke-linejoin: miter; stroke-miterlimit: 4; fill: #008eb9; fill-rule: ; opacity: 1;">d</tspan></text>
 </g>
</svg>